<svg xmlns="http://www.w3.org/2000/svg" height="500px" width="500px">

    <rect x="0" y="0" width="500" height="500" fill="black" />
    <circle cx="230" cy="230" r="150" fill="white" />
    <!-- HEART https://commons.wikimedia.org/wiki/File:A_perfect_SVG_heart.svg -->
    <path 
    transform="rotate(225 205 100)
                scale(.2)"
    d="M70 200 v-50 h200 
    a100,100 90 0,1 0,200
    a100,100 90 0,1 -200,0
    z" fill="red"/>
     <path 
     transform="translate(210 230)"
     d="M 0 0 Q 0 0, 20 0 T 0 80" 
     stroke="grey" 
     stroke-width="5"
     fill="transparent"/>
         <path 
    transform="rotate(225 205 100)
                scale(.2)"
    d="M70 200 v-50 h200 
    a100,100 90 0,1 0,200
    a100,100 90 0,1 -200,0
    z" fill="red"/>
     <path 
     transform="translate(380 230)"
     d="M 0 0 Q 0 0, 20 0 T -22 80" 
     stroke="grey" 
     stroke-width="5"
     fill="white"/>

    <path 
     transform="translate(200 160)"
     d="M 0 0 Q 0 0, 40 10 T 0 30" 
     stroke="black" 
     stroke-width="5"
     fill="transparent"/>
         <path 
     transform="translate(340 160)"
     d="M 0 0 Q 0 0, -40 10 T 0 30" 
     stroke="black" 
     stroke-width="5"
     fill="transparent"/>

</svg>
